Coordinates
version=1
nRows=15
nColumns=46
inDegrees=yes

Units are S.I. units (second, meters, Newtons, ...)
Angles are in degrees.

endheader
time	pelvis_tilt	pelvis_list	pelvis_rotation	pelvis_tx	pelvis_ty	pelvis_tz	bb_angle	bb_tx	bb_ty	bb_tz	hip_flexion_r	hip_adduction_r	hip_rotation_r	knee_angle_r	knee_angle_r_beta	ankle_angle_r	subtalar_angle_r	mtp_angle_r	crank_angle_r	hip_flexion_l	hip_adduction_l	hip_rotation_l	knee_angle_l	knee_angle_l_beta	ankle_angle_l	subtalar_angle_l	mtp_angle_l	crank_angle_l	lumbar_extension	lumbar_bending	lumbar_rotation	arm_flex_r	arm_add_r	arm_rot_r	elbow_flex_r	pro_sup_r	wrist_flex_r	wrist_dev_r	arm_flex_l	arm_add_l	arm_rot_l	elbow_flex_l	pro_sup_l	wrist_flex_l	wrist_dev_l
      0.00000000	    -16.80170472	     -2.73861164	     -1.05815517	      0.18262358	      1.03831465	     -0.31522292	      0.00000000	      0.50000000	      0.00000000	      0.25000000	     89.05565122	     -3.73877615	      1.03518212	     90.97284993	      1.58777576	      7.63458871	     -5.80233369	      0.00000000	      0.00000000	     53.85460479	     -9.90496243	      1.23800985	     73.54407111	      1.28358619	     -4.32768473	     -5.34155711	      0.00000000	      0.00000000	    -54.78884680	      2.16467282	      3.21825871	     89.72912987	      2.22587961	     28.86183769	     24.76333289	     21.91951503	      0.00000000	      0.00000000	     89.38098118	     -1.58353810	     33.75403855	     25.80241970	     23.75312547	      0.00000000	      0.00000000
      0.00500000	    -16.81465758	     -2.67065320	     -1.13034917	      0.18263008	      1.03848404	     -0.31505491	      0.00000000	      0.50000000	      0.00000000	      0.25000000	     89.05295970	     -3.64345551	      1.12334112	     90.94851246	      1.58735099	      7.66275488	     -5.79608908	      0.00000000	      0.00000000	     53.85453116	     -9.91506158	      1.14310446	     73.47407202	      1.28236447	     -4.58926807	     -5.43864204	      0.00000000	      0.00000000	    -54.79666234	      2.03190245	      3.15122857	     89.72686781	      2.32422829	     28.20091149	     24.74330070	     22.63206688	      0.00000000	      0.00000000	     89.38319449	     -1.57493238	     33.41899268	     25.75768256	     24.60606667	      0.00000000	      0.00000000
      0.01000000	    -16.88391905	     -2.75137207	     -1.04541314	      0.18252144	      1.03849530	     -0.31512569	      0.00000000	      0.50000000	      0.00000000	      0.25000000	     89.10035634	     -3.69124489	      1.05932408	     90.95358884	      1.58743959	      7.69983263	     -5.85005815	      0.00000000	      0.00000000	     54.02984567	     -9.88896477	      1.30758628	     73.47696894	      1.28241503	     -4.85684958	     -5.42745978	      0.00000000	      0.00000000	    -54.73506621	      2.16089044	      3.19500211	     89.72660882	      2.34055714	     27.96334469	     24.72398532	     22.86064609	      0.00000000	      0.00000000	     89.39086325	     -1.48821420	     33.27777723	     25.50680293	     24.99206547	      0.00000000	      0.00000000
      0.01500000	    -16.94496322	     -2.72793716	     -1.06923086	      0.18241822	      1.03860573	     -0.31500651	      0.00000000	      0.50000000	      0.00000000	      0.25000000	     89.09815684	     -3.61692249	      1.12947850	     90.95522911	      1.58746822	      7.88968821	     -6.05979279	      0.00000000	      0.00000000	     54.11817599	     -9.89045048	      1.30284486	     73.41840970	      1.28139298	     -5.13495254	     -5.43692542	      0.00000000	      0.00000000	    -54.66426059	      2.11232887	      3.28166219	     89.72811608	      1.72473432	     30.67682321	     24.76283203	     21.97973210	      0.00000000	      0.00000000	     89.39966684	     -1.69113786	     34.23967846	     25.38351652	     26.00276314	      0.00000000	      0.00000000
      0.02000000	    -17.01340243	     -2.71460878	     -1.06553637	      0.18224174	      1.03895840	     -0.31484479	      0.00000000	      0.50000000	      0.00000000	      0.25000000	     89.18332775	     -3.65956733	      1.10781214	     90.94722457	      1.58732851	      7.84569781	     -6.01394068	      0.00000000	      0.00000000	     54.23794366	     -9.84750451	      1.34762497	     73.33641205	      1.27996185	     -5.57093712	     -5.53032939	      0.00000000	      0.00000000	    -54.62489574	      2.13748816	      3.30322254	     89.72928039	      1.92219774	     29.51666647	     24.66519215	     22.77855975	      0.00000000	      0.00000000	     89.39383367	     -1.70254544	     33.13100948	     25.19074824	     26.85050572	      0.00000000	      0.00000000
      0.02500000	    -17.04319866	     -2.69417633	     -1.04792611	      0.18212793	      1.03916155	     -0.31479874	      0.00000000	      0.50000000	      0.00000000	      0.25000000	     89.22840675	     -3.67753757	      1.12933826	     90.94779490	      1.58733847	      7.75379225	     -6.03501762	      0.00000000	      0.00000000	     54.33367449	     -9.80115319	      1.38020089	     73.29253130	      1.27919599	     -5.95947768	     -5.61554521	      0.00000000	      0.00000000	    -54.63261683	      2.13971429	      3.27403869	     89.72865103	      2.09212040	     28.45853510	     24.59409950	     23.79116844	      0.00000000	      0.00000000	     89.39125973	     -1.55559219	     32.18233703	     25.10621597	     27.88437371	      0.00000000	      0.00000000
      0.03000000	    -17.15098103	     -2.71674723	     -0.99538315	      0.18198813	      1.03916524	     -0.31479813	      0.00000000	      0.50000000	      0.00000000	      0.25000000	     89.36980611	     -3.71519529	      1.11953823	     90.95877051	      1.58753003	      7.67211745	     -6.03165413	      0.00000000	      0.00000000	     54.54813956	     -9.77161203	      1.47128809	     73.29412449	      1.27922379	     -6.29606706	     -5.57577532	      0.00000000	      0.00000000	    -54.53505928	      2.19557828	      3.27125750	     89.72750381	      2.12381332	     28.09660396	     24.55737741	     24.25818181	      0.00000000	      0.00000000	     89.40338523	     -1.48179845	     31.84894508	     24.89083372	     28.38236224	      0.00000000	      0.00000000
      0.03500000	    -17.14426934	     -2.65126458	     -0.96134354	      0.18188803	      1.03936251	     -0.31477026	      0.00000000	      0.50000000	      0.00000000	      0.25000000	     89.40999319	     -3.73980119	      1.20576551	     90.98495716	      1.58798707	      7.52404880	     -6.08828651	      0.00000000	      0.00000000	     54.58442812	     -9.68965238	      1.45964943	     73.24757325	      1.27841132	     -6.63868332	     -5.68659631	      0.00000000	      0.00000000	    -54.57677889	      2.16633343	      3.16209404	     89.73023357	      2.35727360	     26.88939869	     24.61306656	     24.64617965	      0.00000000	      0.00000000	     89.38887010	     -1.44090444	     31.04682358	     25.18036774	     28.34702312	      0.00000000	      0.00000000
      0.04000000	    -17.24109037	     -2.68345248	     -0.97298203	      0.18180794	      1.03937130	     -0.31473411	      0.00000000	      0.50000000	      0.00000000	      0.25000000	     89.53134631	     -3.71281145	      1.18805524	     90.97213620	      1.58776330	      7.41174281	     -6.03742260	      0.00000000	      0.00000000	     54.77216176	     -9.73697018	      1.49332711	     73.26375426	      1.27869373	     -7.01129578	     -5.40327701	      0.00000000	      0.00000000	    -54.49367039	      2.19284614	      3.23436054	     89.72752825	      2.29856041	     26.95282564	     24.78305052	     24.57796013	      0.00000000	      0.00000000	     89.40744695	     -1.38363160	     31.31757667	     24.93046417	     28.10593661	      0.00000000	      0.00000000
      0.04500000	    -17.26361036	     -2.70183767	     -0.94106579	      0.18173186	      1.03945644	     -0.31473314	      0.00000000	      0.50000000	      0.00000000	      0.25000000	     89.59291676	     -3.75396960	      1.14917945	     90.98377641	      1.58796646	      7.26358183	     -6.09735937	      0.00000000	      0.00000000	     54.86234599	     -9.73879413	      1.52554521	     73.26370441	      1.27869286	     -7.22807112	     -5.33167093	      0.00000000	      0.00000000	    -54.46950715	      2.22338829	      3.30126032	     89.72790538	      1.90728239	     28.61448028	     24.86202985	     23.90330145	      0.00000000	      0.00000000	     89.42194712	     -1.46572796	     32.32875796	     24.76451843	     28.24208528	      0.00000000	      0.00000000
      0.05000000	    -17.27231346	     -2.67720921	     -0.89458350	      0.18166968	      1.03951546	     -0.31481683	      0.00000000	      0.50000000	      0.00000000	      0.25000000	     89.65134610	     -3.81156991	      1.18277730	     91.01394424	      1.58849299	      7.11044625	     -6.12652467	      0.00000000	      0.00000000	     54.91004917	     -9.67406526	      1.52683215	     73.24383223	      1.27834603	     -7.44033738	     -5.52094890	      0.00000000	      0.00000000	    -54.45872612	      2.23865981	      3.23346961	     89.73216276	      1.72353968	     30.28739923	     24.90669972	     21.96533805	      0.00000000	      0.00000000	     89.42087519	     -1.74433448	     33.43110190	     25.20052529	     27.32616819	      0.00000000	      0.00000000
      0.05500000	    -17.21369445	     -2.65732991	     -0.89176788	      0.18164193	      1.03972651	     -0.31483998	      0.00000000	      0.50000000	      0.00000000	      0.25000000	     89.62180599	     -3.82001997	      1.20450757	     91.03094090	      1.58878964	      7.00040421	     -6.08035736	      0.00000000	      0.00000000	     54.85896117	     -9.66720273	      1.50073466	     73.21268597	      1.27780242	     -7.63005289	     -5.54448754	      0.00000000	      0.00000000	    -54.56740202	      2.24000401	      3.19091800	     89.73399127	      1.86410776	     29.33224813	     25.06058635	     22.64145320	      0.00000000	      0.00000000	     89.40749753	     -1.73538095	     32.66715627	     25.44907663	     27.77532152	      0.00000000	      0.00000000
      0.06000000	    -17.25189102	     -2.64619352	     -0.94023504	      0.18154835	      1.03960442	     -0.31467875	      0.00000000	      0.50000000	      0.00000000	      0.25000000	     89.72171878	     -3.75474006	      1.23798272	     91.05526065	      1.58921410	      6.90504289	     -6.04502146	      0.00000000	      0.00000000	     54.93017518	     -9.72944165	      1.46862656	     73.23703220	      1.27822735	     -7.64095506	     -5.37146034	      0.00000000	      0.00000000	    -54.51714162	      2.19877170	      3.19523628	     89.73014669	      2.16422587	     27.92025631	     25.00613985	     23.42500809	      0.00000000	      0.00000000	     89.42055779	     -1.44894501	     32.11890254	     25.10588370	     27.85932690	      0.00000000	      0.00000000
      0.06500000	    -17.25070050	     -2.60096851	     -0.92598891	      0.18157899	      1.03967740	     -0.31479524	      0.00000000	      0.50000000	      0.00000000	      0.25000000	     89.74847800	     -3.78059945	      1.30087176	     91.06116735	      1.58931719	      6.78564638	     -6.07892498	      0.00000000	      0.00000000	     54.90354959	     -9.67514453	      1.41255771	     73.18858292	      1.27738175	     -7.76296874	     -5.46376438	      0.00000000	      0.00000000	    -54.51815567	      2.16645491	      3.11237901	     89.73155385	      1.94260798	     29.08694371	     25.28680980	     21.50210654	      0.00000000	      0.00000000	     89.42421171	     -1.66760358	     33.56470384	     25.59290159	     25.99166405	      0.00000000	      0.00000000
      0.07000000	    -17.22246444	     -2.62053403	     -0.97583983	      0.18160495	      1.03961045	     -0.31477020	      0.00000000	      0.50000000	      0.00000000	      0.25000000	     89.75459489	     -3.73347306	      1.28349176	     91.08606287	      1.58975170	      6.73287699	     -5.99264790	      0.00000000	      0.00000000	     54.87757679	     -9.74593195	      1.37855962	     73.21686689	      1.27787540	     -7.70526268	     -5.45095375	      0.00000000	      0.00000000	    -54.53452568	      2.16154639	      3.15200495	     89.73370356	      1.83966842	     30.10432398	     25.14085959	     21.54549503	      0.00000000	      0.00000000	     89.42240668	     -1.81618375	     34.24664798	     25.55125830	     26.64977494	      0.00000000	      0.00000000
